<mxfile host="app.diagrams.net" modified="2024-05-17T13:17:32.802Z" agent="Mozilla/5.0 (Windows NT 10.0; Win64; x64) AppleWebKit/537.36 (KHTML, like Gecko) Chrome/124.0.0.0 Safari/537.36" etag="yOWdVF9HHKVfP5lE3dfm" version="24.4.4" type="device">
  <diagram name="Page-1" id="F8H2NtQQUXKiDegSpYVV">
    <mxGraphModel dx="1644" dy="853" grid="1" gridSize="10" guides="1" tooltips="1" connect="1" arrows="1" fold="1" page="1" pageScale="1" pageWidth="850" pageHeight="1100" math="0" shadow="0">
      <root>
        <mxCell id="0" />
        <mxCell id="1" parent="0" />
        <mxCell id="SfFov5bysuySEEd5sr5L-4" style="edgeStyle=orthogonalEdgeStyle;rounded=0;orthogonalLoop=1;jettySize=auto;html=1;" edge="1" parent="1" source="SfFov5bysuySEEd5sr5L-1" target="SfFov5bysuySEEd5sr5L-5">
          <mxGeometry relative="1" as="geometry">
            <mxPoint x="280" y="450" as="targetPoint" />
          </mxGeometry>
        </mxCell>
        <mxCell id="SfFov5bysuySEEd5sr5L-1" value="User" style="shape=umlActor;verticalLabelPosition=bottom;verticalAlign=top;html=1;outlineConnect=0;" vertex="1" parent="1">
          <mxGeometry x="100" y="420" width="30" height="60" as="geometry" />
        </mxCell>
        <mxCell id="SfFov5bysuySEEd5sr5L-7" value="" style="rounded=0;whiteSpace=wrap;html=1;fillColor=none;" vertex="1" parent="1">
          <mxGeometry x="200" y="390" width="160" height="120" as="geometry" />
        </mxCell>
        <mxCell id="SfFov5bysuySEEd5sr5L-13" style="edgeStyle=orthogonalEdgeStyle;rounded=0;orthogonalLoop=1;jettySize=auto;html=1;" edge="1" parent="1" source="SfFov5bysuySEEd5sr5L-5" target="SfFov5bysuySEEd5sr5L-9">
          <mxGeometry relative="1" as="geometry" />
        </mxCell>
        <mxCell id="SfFov5bysuySEEd5sr5L-5" value="List Open Banking Companies" style="rounded=0;whiteSpace=wrap;html=1;" vertex="1" parent="1">
          <mxGeometry x="220" y="420" width="120" height="60" as="geometry" />
        </mxCell>
        <mxCell id="SfFov5bysuySEEd5sr5L-8" value="Web UI (React)" style="text;html=1;align=center;verticalAlign=middle;whiteSpace=wrap;rounded=0;" vertex="1" parent="1">
          <mxGeometry x="250" y="360" width="60" height="30" as="geometry" />
        </mxCell>
        <mxCell id="SfFov5bysuySEEd5sr5L-10" value="" style="rounded=0;whiteSpace=wrap;html=1;fillColor=none;" vertex="1" parent="1">
          <mxGeometry x="460" y="370" width="740" height="230" as="geometry" />
        </mxCell>
        <mxCell id="SfFov5bysuySEEd5sr5L-18" value="" style="edgeStyle=orthogonalEdgeStyle;rounded=0;orthogonalLoop=1;jettySize=auto;html=1;entryX=0;entryY=0.5;entryDx=0;entryDy=0;" edge="1" parent="1" source="SfFov5bysuySEEd5sr5L-9" target="SfFov5bysuySEEd5sr5L-25">
          <mxGeometry relative="1" as="geometry" />
        </mxCell>
        <mxCell id="SfFov5bysuySEEd5sr5L-9" value="List companies" style="rounded=0;whiteSpace=wrap;html=1;" vertex="1" parent="1">
          <mxGeometry x="490" y="420" width="120" height="60" as="geometry" />
        </mxCell>
        <mxCell id="SfFov5bysuySEEd5sr5L-12" value="API (ASP.NET Core)" style="text;html=1;align=center;verticalAlign=middle;whiteSpace=wrap;rounded=0;" vertex="1" parent="1">
          <mxGeometry x="790" y="330" width="100" height="30" as="geometry" />
        </mxCell>
        <mxCell id="SfFov5bysuySEEd5sr5L-33" style="edgeStyle=orthogonalEdgeStyle;rounded=0;orthogonalLoop=1;jettySize=auto;html=1;entryX=0.5;entryY=1;entryDx=0;entryDy=0;" edge="1" parent="1" source="SfFov5bysuySEEd5sr5L-14" target="SfFov5bysuySEEd5sr5L-32">
          <mxGeometry relative="1" as="geometry" />
        </mxCell>
        <mxCell id="SfFov5bysuySEEd5sr5L-34" value="Response" style="edgeLabel;html=1;align=center;verticalAlign=middle;resizable=0;points=[];" vertex="1" connectable="0" parent="SfFov5bysuySEEd5sr5L-33">
          <mxGeometry x="-0.0115" y="1" relative="1" as="geometry">
            <mxPoint as="offset" />
          </mxGeometry>
        </mxCell>
        <mxCell id="SfFov5bysuySEEd5sr5L-14" value="Open banking participants" style="whiteSpace=wrap;html=1;" vertex="1" parent="1">
          <mxGeometry x="900" y="710" width="120" height="60" as="geometry" />
        </mxCell>
        <mxCell id="SfFov5bysuySEEd5sr5L-16" value="Companies participants cache" style="whiteSpace=wrap;html=1;" vertex="1" parent="1">
          <mxGeometry x="900" y="380" width="120" height="60" as="geometry" />
        </mxCell>
        <mxCell id="SfFov5bysuySEEd5sr5L-26" style="edgeStyle=orthogonalEdgeStyle;rounded=0;orthogonalLoop=1;jettySize=auto;html=1;entryX=0.5;entryY=1;entryDx=0;entryDy=0;" edge="1" parent="1" source="SfFov5bysuySEEd5sr5L-17" target="SfFov5bysuySEEd5sr5L-16">
          <mxGeometry relative="1" as="geometry" />
        </mxCell>
        <mxCell id="SfFov5bysuySEEd5sr5L-30" value="Yes" style="edgeLabel;html=1;align=center;verticalAlign=middle;resizable=0;points=[];" vertex="1" connectable="0" parent="SfFov5bysuySEEd5sr5L-26">
          <mxGeometry x="0.3383" y="3" relative="1" as="geometry">
            <mxPoint as="offset" />
          </mxGeometry>
        </mxCell>
        <mxCell id="SfFov5bysuySEEd5sr5L-42" style="edgeStyle=orthogonalEdgeStyle;rounded=0;orthogonalLoop=1;jettySize=auto;html=1;entryX=0.5;entryY=0;entryDx=0;entryDy=0;" edge="1" parent="1" source="SfFov5bysuySEEd5sr5L-17" target="SfFov5bysuySEEd5sr5L-14">
          <mxGeometry relative="1" as="geometry" />
        </mxCell>
        <mxCell id="SfFov5bysuySEEd5sr5L-43" value="No" style="edgeLabel;html=1;align=center;verticalAlign=middle;resizable=0;points=[];" vertex="1" connectable="0" parent="SfFov5bysuySEEd5sr5L-42">
          <mxGeometry x="0.5037" y="1" relative="1" as="geometry">
            <mxPoint as="offset" />
          </mxGeometry>
        </mxCell>
        <mxCell id="SfFov5bysuySEEd5sr5L-17" value="Is cache valid?" style="rhombus;whiteSpace=wrap;html=1;rounded=0;" vertex="1" parent="1">
          <mxGeometry x="780" y="500" width="80" height="80" as="geometry" />
        </mxCell>
        <mxCell id="SfFov5bysuySEEd5sr5L-36" value="" style="rounded=0;whiteSpace=wrap;html=1;fillColor=none;" vertex="1" parent="1">
          <mxGeometry x="860" y="685" width="200" height="110" as="geometry" />
        </mxCell>
        <mxCell id="SfFov5bysuySEEd5sr5L-28" style="edgeStyle=orthogonalEdgeStyle;rounded=0;orthogonalLoop=1;jettySize=auto;html=1;" edge="1" parent="1" source="SfFov5bysuySEEd5sr5L-25" target="SfFov5bysuySEEd5sr5L-17">
          <mxGeometry relative="1" as="geometry" />
        </mxCell>
        <mxCell id="SfFov5bysuySEEd5sr5L-25" value="Companies gateway" style="rounded=0;whiteSpace=wrap;html=1;" vertex="1" parent="1">
          <mxGeometry x="630" y="420" width="120" height="60" as="geometry" />
        </mxCell>
        <mxCell id="SfFov5bysuySEEd5sr5L-35" style="edgeStyle=orthogonalEdgeStyle;rounded=0;orthogonalLoop=1;jettySize=auto;html=1;entryX=1;entryY=0.5;entryDx=0;entryDy=0;exitX=0.5;exitY=0;exitDx=0;exitDy=0;" edge="1" parent="1" source="SfFov5bysuySEEd5sr5L-32" target="SfFov5bysuySEEd5sr5L-16">
          <mxGeometry relative="1" as="geometry">
            <Array as="points">
              <mxPoint x="1110" y="410" />
            </Array>
          </mxGeometry>
        </mxCell>
        <mxCell id="SfFov5bysuySEEd5sr5L-32" value="Update Cache" style="rounded=0;whiteSpace=wrap;html=1;" vertex="1" parent="1">
          <mxGeometry x="1050" y="480" width="120" height="60" as="geometry" />
        </mxCell>
        <mxCell id="SfFov5bysuySEEd5sr5L-37" value="Open banking API (external)" style="text;html=1;align=center;verticalAlign=middle;whiteSpace=wrap;rounded=0;" vertex="1" parent="1">
          <mxGeometry x="875" y="795" width="170" height="30" as="geometry" />
        </mxCell>
      </root>
    </mxGraphModel>
  </diagram>
</mxfile>
